<svg width="196" height="196" viewBox="0 0 196 196" fill="none" xmlns="http://www.w3.org/2000/svg">
<circle cx="3.30533" cy="4.29538" r="4.29538" fill="#363B97" fill-opacity="0.9"/>
<circle cx="3.30533" cy="30.9267" r="4.29538" fill="#363B97" fill-opacity="0.9"/>
<circle cx="3.30533" cy="57.5581" r="4.29538" fill="#363B97" fill-opacity="0.9"/>
<circle cx="3.30533" cy="84.1894" r="4.29538" fill="#363B97" fill-opacity="0.9"/>
<circle cx="3.30533" cy="110.821" r="4.29538" fill="#363B97" fill-opacity="0.9"/>
<circle cx="3.30533" cy="137.452" r="4.29538" fill="#363B97" fill-opacity="0.9"/>
<circle cx="3.30533" cy="164.083" r="4.29538" fill="#363B97" fill-opacity="0.9"/>
<circle cx="3.30533" cy="190.715" r="4.29538" fill="#363B97" fill-opacity="0.9"/>
<circle cx="27.3582" cy="4.29538" r="4.29538" fill="#363B97" fill-opacity="0.9"/>
<circle cx="27.3582" cy="30.9267" r="4.29538" fill="#363B97" fill-opacity="0.9"/>
<circle cx="27.3582" cy="57.5581" r="4.29538" fill="#363B97" fill-opacity="0.9"/>
<circle cx="27.3582" cy="84.1894" r="4.29538" fill="#363B97" fill-opacity="0.9"/>
<circle cx="27.3582" cy="110.821" r="4.29538" fill="#363B97" fill-opacity="0.9"/>
<circle cx="27.3582" cy="137.452" r="4.29538" fill="#363B97" fill-opacity="0.9"/>
<circle cx="27.3582" cy="164.083" r="4.29538" fill="#363B97" fill-opacity="0.9"/>
<circle cx="27.3582" cy="190.715" r="4.29538" fill="#363B97" fill-opacity="0.9"/>
<circle cx="51.414" cy="4.29538" r="4.29538" fill="#363B97" fill-opacity="0.9"/>
<circle cx="51.414" cy="30.9267" r="4.29538" fill="#363B97" fill-opacity="0.9"/>
<circle cx="51.414" cy="57.5581" r="4.29538" fill="#363B97" fill-opacity="0.9"/>
<circle cx="51.414" cy="84.1894" r="4.29538" fill="#363B97" fill-opacity="0.9"/>
<circle cx="51.414" cy="110.821" r="4.29538" fill="#363B97" fill-opacity="0.9"/>
<circle cx="51.414" cy="137.452" r="4.29538" fill="#363B97" fill-opacity="0.9"/>
<circle cx="51.414" cy="164.083" r="4.29538" fill="#363B97" fill-opacity="0.9"/>
<circle cx="51.414" cy="190.715" r="4.29538" fill="#363B97" fill-opacity="0.9"/>
<circle cx="75.4669" cy="4.29538" r="4.29538" fill="#363B97" fill-opacity="0.9"/>
<circle cx="75.4669" cy="30.9267" r="4.29538" fill="#363B97" fill-opacity="0.9"/>
<circle cx="75.4669" cy="57.5581" r="4.29538" fill="#363B97" fill-opacity="0.9"/>
<circle cx="75.4669" cy="84.1894" r="4.29538" fill="#363B97" fill-opacity="0.9"/>
<circle cx="75.4669" cy="110.821" r="4.29538" fill="#363B97" fill-opacity="0.9"/>
<circle cx="75.4669" cy="137.452" r="4.29538" fill="#363B97" fill-opacity="0.9"/>
<circle cx="75.4669" cy="164.083" r="4.29538" fill="#363B97" fill-opacity="0.9"/>
<circle cx="75.4669" cy="190.715" r="4.29538" fill="#363B97" fill-opacity="0.9"/>
<circle cx="99.5226" cy="4.29538" r="4.29538" fill="#363B97" fill-opacity="0.9"/>
<circle cx="99.5226" cy="30.9267" r="4.29538" fill="#363B97" fill-opacity="0.9"/>
<circle cx="99.5226" cy="57.5581" r="4.29538" fill="#363B97" fill-opacity="0.9"/>
<circle cx="99.5226" cy="84.1894" r="4.29538" fill="#363B97" fill-opacity="0.9"/>
<circle cx="99.5226" cy="110.821" r="4.29538" fill="#363B97" fill-opacity="0.9"/>
<circle cx="99.5226" cy="137.452" r="4.29538" fill="#363B97" fill-opacity="0.9"/>
<circle cx="99.5226" cy="164.083" r="4.29538" fill="#363B97" fill-opacity="0.9"/>
<circle cx="99.5226" cy="190.715" r="4.29538" fill="#363B97" fill-opacity="0.9"/>
<circle cx="123.576" cy="4.29538" r="4.29538" fill="#363B97" fill-opacity="0.9"/>
<circle cx="123.576" cy="30.9267" r="4.29538" fill="#363B97" fill-opacity="0.9"/>
<circle cx="123.576" cy="57.5581" r="4.29538" fill="#363B97" fill-opacity="0.9"/>
<circle cx="123.576" cy="84.1894" r="4.29538" fill="#363B97" fill-opacity="0.9"/>
<circle cx="123.576" cy="110.821" r="4.29538" fill="#363B97" fill-opacity="0.9"/>
<circle cx="123.576" cy="137.452" r="4.29538" fill="#363B97" fill-opacity="0.9"/>
<circle cx="123.576" cy="164.083" r="4.29538" fill="#363B97" fill-opacity="0.9"/>
<circle cx="123.576" cy="190.715" r="4.29538" fill="#363B97" fill-opacity="0.9"/>
<circle cx="147.631" cy="4.29538" r="4.29538" fill="#363B97" fill-opacity="0.9"/>
<circle cx="147.631" cy="30.9267" r="4.29538" fill="#363B97" fill-opacity="0.9"/>
<circle cx="147.631" cy="57.5581" r="4.29538" fill="#363B97" fill-opacity="0.9"/>
<circle cx="147.631" cy="84.1894" r="4.29538" fill="#363B97" fill-opacity="0.9"/>
<circle cx="147.631" cy="110.821" r="4.29538" fill="#363B97" fill-opacity="0.9"/>
<circle cx="147.631" cy="137.452" r="4.29538" fill="#363B97" fill-opacity="0.9"/>
<circle cx="147.631" cy="164.083" r="4.29538" fill="#363B97" fill-opacity="0.9"/>
<circle cx="147.631" cy="190.715" r="4.29538" fill="#363B97" fill-opacity="0.9"/>
<circle cx="171.684" cy="4.29538" r="4.29538" fill="#363B97" fill-opacity="0.9"/>
<circle cx="171.684" cy="30.9267" r="4.29538" fill="#363B97" fill-opacity="0.9"/>
<circle cx="171.684" cy="57.5581" r="4.29538" fill="#363B97" fill-opacity="0.9"/>
<circle cx="171.684" cy="84.1894" r="4.29538" fill="#363B97" fill-opacity="0.9"/>
<circle cx="171.684" cy="110.821" r="4.29538" fill="#363B97" fill-opacity="0.9"/>
<circle cx="171.684" cy="137.452" r="4.29538" fill="#363B97" fill-opacity="0.9"/>
<circle cx="171.684" cy="164.083" r="4.29538" fill="#363B97" fill-opacity="0.9"/>
<circle cx="171.684" cy="190.715" r="4.29538" fill="#363B97" fill-opacity="0.9"/>
<circle cx="195.737" cy="4.29538" r="4.29538" fill="#363B97" fill-opacity="0.9"/>
<circle cx="195.737" cy="30.9267" r="4.29538" fill="#363B97" fill-opacity="0.9"/>
<circle cx="195.737" cy="57.5581" r="4.29538" fill="#363B97" fill-opacity="0.9"/>
<circle cx="195.737" cy="84.1894" r="4.29538" fill="#363B97" fill-opacity="0.9"/>
<circle cx="195.737" cy="110.821" r="4.29538" fill="#363B97" fill-opacity="0.9"/>
<circle cx="195.737" cy="137.452" r="4.29538" fill="#363B97" fill-opacity="0.9"/>
<circle cx="195.737" cy="164.083" r="4.29538" fill="#363B97" fill-opacity="0.9"/>
<circle cx="195.737" cy="190.715" r="4.29538" fill="#363B97" fill-opacity="0.9"/>
</svg>
